<?xml version="1.0" standalone="no"?>

<svg version="1.1" xmlns="http://www.w3.org/2000/svg"
     width="900.000000pt" height="675.000000pt" viewBox="0 0 900.000000 675.000000"
     preserveAspectRatio="xMidYMid meet">

  <defs>
    <linearGradient id="myGradient" x1="0%" y1="0%" x2="100%" y2="100%">
      <stop offset="0%" style="stop-color:#ff69b4; stop-opacity:1" /> <!-- Rosa -->
      <stop offset="33%" style="stop-color:#8a2be2; stop-opacity:1" /> <!-- Morado -->
      <stop offset="66%" style="stop-color:#87cefa; stop-opacity:1" /> <!-- Azul Cielo -->
      <stop offset="100%" style="stop-color:#00008b; stop-opacity:1" /> <!-- Azul Marino -->
    </linearGradient>
  </defs>

  <g transform="translate(0.000000,675.000000) scale(0.100000,-0.100000)"
     fill="url(#myGradient)" stroke="none">

<path d="M4350 5829 c-19 -5 -71 -13 -115 -18 -79 -9 -141 -23 -200 -43 -16
-6 -46 -13 -65 -16 -19 -2 -44 -11 -55 -18 -11 -8 -29 -14 -40 -14 -12 0 -30
-7 -41 -15 -10 -8 -27 -15 -36 -15 -14 0 -52 -16 -98 -42 -8 -4 -22 -11 -30
-14 -8 -3 -22 -9 -30 -14 -8 -5 -35 -20 -60 -32 -25 -13 -73 -42 -108 -65 -35
-24 -67 -43 -72 -43 -5 0 -13 -6 -17 -13 -4 -7 -37 -35 -73 -62 -77 -57 -196
-174 -269 -263 -52 -62 -130 -173 -144 -202 -4 -8 -16 -28 -27 -45 -20 -32
-84 -158 -108 -215 -8 -19 -21 -48 -28 -63 -8 -16 -14 -39 -14 -51 0 -12 -7
-31 -15 -42 -8 -10 -15 -33 -15 -49 0 -52 -24 -75 -78 -75 -26 -1 -58 -7 -72
-15 -14 -8 -35 -14 -47 -15 -12 0 -34 -6 -50 -14 -15 -8 -59 -29 -98 -47 -122
-58 -257 -178 -335 -298 -33 -50 -38 -54 -160 -108 -19 -8 -42 -19 -50 -24 -8
-5 -25 -13 -37 -19 -75 -32 -253 -168 -347 -264 -69 -71 -167 -192 -203 -251
-30 -49 -83 -158 -83 -170 0 -7 -7 -18 -15 -25 -8 -7 -15 -22 -15 -34 0 -12
-7 -31 -15 -42 -8 -10 -15 -30 -15 -44 0 -14 -7 -36 -15 -50 -8 -14 -15 -41
-15 -60 0 -19 -7 -60 -15 -90 -20 -76 -20 -347 0 -414 8 -27 15 -65 15 -85 1
-20 7 -47 15 -61 8 -14 15 -36 15 -50 0 -14 7 -34 15 -44 8 -11 15 -28 15 -37
0 -15 15 -52 42 -99 4 -8 10 -21 13 -27 13 -33 17 -40 35 -68 11 -16 23 -37
27 -45 17 -38 134 -182 203 -250 98 -98 139 -131 235 -193 109 -70 114 -73
165 -97 25 -12 58 -28 73 -35 16 -8 35 -15 42 -15 7 0 26 -6 42 -14 42 -21 93
-37 138 -45 23 -4 47 -11 55 -16 7 -4 47 -12 89 -16 42 -4 101 -12 131 -17 35
-7 794 -11 2080 -11 1769 -1 2032 1 2080 14 30 8 72 15 93 15 21 0 47 5 58 10
10 6 38 14 61 19 50 11 102 28 141 47 16 8 37 14 47 14 9 0 23 7 30 15 7 8 18
15 25 15 6 0 32 11 56 25 24 13 53 29 64 35 39 21 116 71 125 80 3 3 34 28 70
55 75 57 151 130 200 195 19 25 47 58 62 74 15 17 28 34 28 39 0 4 11 23 24
40 14 18 29 43 35 57 6 14 15 33 21 43 5 9 15 25 20 35 6 9 13 24 16 32 3 8
12 28 20 43 7 16 14 36 14 46 0 9 7 26 15 37 8 10 15 30 15 44 0 14 7 36 15
50 8 14 14 43 15 66 0 22 7 63 15 90 20 67 20 309 0 384 -8 30 -15 70 -15 88
0 18 -5 43 -12 55 -6 12 -15 38 -19 57 -8 40 -28 98 -40 120 -5 8 -12 22 -15
30 -11 25 -75 154 -87 175 -39 65 -141 191 -211 261 -88 88 -196 174 -218 174
-8 0 -35 -28 -61 -62 -26 -35 -87 -106 -137 -158 -91 -95 -106 -125 -71 -138
58 -22 261 -223 307 -305 57 -101 102 -210 115 -277 4 -25 13 -61 18 -80 16
-53 14 -230 -4 -280 -8 -23 -15 -57 -15 -74 0 -18 -7 -41 -15 -52 -8 -10 -15
-27 -15 -37 0 -11 -6 -31 -14 -45 -8 -15 -17 -34 -20 -42 -4 -8 -15 -28 -26
-45 -11 -16 -23 -37 -27 -45 -12 -27 -92 -128 -139 -174 -49 -49 -158 -136
-170 -136 -4 0 -15 -6 -23 -14 -23 -19 -131 -76 -147 -76 -7 0 -25 -6 -41 -14
-48 -23 -96 -38 -153 -46 -30 -5 -71 -13 -90 -19 -42 -13 -3096 -13 -3720 0
-401 8 -508 15 -547 37 -12 7 -32 12 -45 12 -13 0 -32 7 -42 15 -11 8 -30 15
-42 15 -12 0 -27 7 -34 15 -7 8 -20 15 -30 15 -10 0 -23 7 -30 15 -7 8 -19 15
-27 15 -8 0 -32 14 -53 30 -21 17 -43 30 -48 30 -6 0 -15 6 -19 13 -4 7 -26
26 -47 43 -44 32 -183 187 -197 219 -5 11 -18 34 -29 50 -11 17 -22 37 -25 45
-3 8 -13 28 -21 43 -7 16 -14 36 -14 45 0 9 -7 26 -15 36 -8 11 -15 32 -15 47
0 14 -7 46 -15 69 -20 57 -20 269 0 325 8 22 15 54 15 70 0 17 7 39 15 49 8
11 15 27 15 35 0 23 59 140 92 182 15 20 28 42 28 48 0 15 196 211 211 211 6
0 28 13 48 28 56 44 226 122 264 122 13 0 32 7 43 15 10 8 35 15 55 15 38 0
69 24 69 53 0 16 24 77 41 107 5 8 12 22 15 30 13 30 122 127 165 147 96 44
121 53 152 53 18 0 57 7 87 15 31 8 99 15 153 15 134 0 137 3 137 96 0 68 7
111 41 249 6 22 14 57 18 78 5 21 14 44 20 50 6 6 11 21 11 33 0 12 7 27 15
34 8 7 15 18 15 25 0 6 11 32 25 56 13 24 30 55 36 69 5 14 21 39 35 57 13 17
24 35 24 38 0 13 171 202 222 245 71 60 135 110 141 110 3 0 35 20 71 45 37
25 72 45 80 45 7 0 19 7 26 15 7 8 18 15 25 15 8 0 27 7 44 15 17 8 45 22 62
30 17 8 40 15 52 15 12 0 31 7 41 15 11 8 33 15 49 15 15 0 38 5 50 12 12 6
53 15 92 19 38 5 90 13 115 18 58 13 242 13 300 0 25 -5 74 -13 110 -17 36 -5
75 -13 87 -20 12 -7 37 -12 55 -12 18 0 42 -7 52 -15 11 -8 28 -15 39 -15 10
0 31 -6 45 -13 15 -8 42 -21 60 -30 19 -9 39 -17 47 -17 7 0 18 -7 25 -15 7
-8 18 -15 26 -15 32 0 234 -152 333 -251 67 -68 174 -211 207 -276 10 -21 21
-15 76 40 29 30 91 87 138 127 118 102 132 117 124 143 -22 70 -324 398 -434
472 -25 17 -46 33 -48 38 -2 4 -8 7 -12 7 -5 0 -28 13 -52 29 -37 25 -73 45
-138 80 -8 4 -24 13 -35 19 -11 7 -27 15 -35 18 -24 9 -83 35 -113 50 -16 8
-36 14 -46 14 -9 0 -26 7 -37 15 -10 8 -33 15 -50 15 -16 0 -39 7 -50 15 -10
8 -35 15 -55 15 -20 0 -53 7 -72 15 -20 8 -56 15 -79 15 -24 1 -72 7 -108 15
-73 16 -342 19 -400 4z"/>
<path d="M7136 5010 c-16 -10 -76 -66 -133 -124 -57 -58 -108 -106 -114 -106
-6 0 -43 29 -81 65 -39 36 -78 65 -87 65 -9 0 -25 7 -35 15 -31 23 -172 20
-219 -4 -65 -33 -97 -62 -440 -405 -345 -345 -380 -384 -410 -449 -24 -53 -23
-171 1 -219 24 -46 83 -126 116 -157 17 -16 24 -31 20 -43 -3 -10 -42 -56 -88
-101 -120 -120 -126 -130 -126 -196 0 -51 3 -60 33 -89 30 -29 39 -32 95 -32
l63 0 107 110 c58 60 113 110 120 110 8 0 39 -22 70 -50 31 -27 61 -50 67 -50
6 0 16 -5 23 -12 15 -15 97 -37 137 -37 40 0 122 22 137 37 7 7 17 12 24 12
19 0 767 754 785 791 9 19 24 59 33 89 14 51 14 60 -2 120 -17 65 -63 139
-116 189 -18 17 -24 31 -20 44 3 10 52 66 107 124 56 57 105 113 109 123 4 10
11 21 17 25 17 10 13 62 -8 101 -37 69 -122 94 -185 54z m-519 -432 c18 -18
33 -36 33 -41 0 -4 -27 -40 -60 -79 -57 -68 -60 -75 -60 -124 0 -64 29 -105
88 -122 56 -17 95 -1 169 71 l63 61 25 -24 c14 -13 25 -28 25 -34 0 -12 -606
-623 -633 -638 -15 -7 -24 -5 -43 13 -13 12 -24 30 -24 39 0 8 23 38 51 65
106 103 121 155 66 227 -32 42 -34 43 -98 46 l-66 3 -77 -78 -77 -77 -37 37
-37 37 325 325 c179 179 327 325 329 325 3 0 20 -14 38 -32z"/>
</g>
</svg>
